<svg xmlns="http://www.w3.org/2000/svg" fill-rule="evenodd" stroke-linejoin="round" stroke-miterlimit="2" clip-rule="evenodd" viewBox="0 0 889 224"><defs/><g fill="#2c2c2c" fill-rule="nonzero"><path d="M37.917 133.202H22.16V91.806l47.146-.481 9.038-12.07L10 79.957v65.214h18.943l8.974-11.97zM113.689 111.686l29.215-33.106-49.336.508-49.52 66.083h14.35l.386.277.202-.277h85.298l-30.595-33.485zM98.925 91.01l17.046-.176-18.52 20.98 19.533 21.378h-49.17l31.11-42.182z"/><g><path d="M206.838 94.412c-1.638-2.181-3.764-3.78-6.388-4.788-2.623-1.007-5.191-1.506-7.704-1.506-3.212 0-6.13.573-8.753 1.728-2.624 1.155-4.888 2.727-6.784 4.741-1.896 2.015-3.35 4.372-4.372 7.07-1.022 2.7-1.528 5.639-1.528 8.8 0 3.336.497 6.377 1.49 9.14.995 2.754 2.403 5.13 4.244 7.117 1.841 1.978 4.041 3.521 6.609 4.612 2.568 1.09 5.45 1.635 8.661 1.635 3.323 0 6.269-.646 8.837-1.94 2.568-1.294 4.639-3.004 6.213-5.13l8.836 6.119a28.24 28.24 0 01-10.06 7.892c-3.968 1.867-8.607 2.8-13.918 2.8-4.841 0-9.287-.794-13.346-2.365-4.06-1.58-7.539-3.79-10.456-6.636-2.918-2.847-5.192-6.239-6.82-10.176-1.63-3.937-2.45-8.29-2.45-13.06 0-4.888.857-9.297 2.578-13.234 1.721-3.937 4.087-7.283 7.087-10.047 3.01-2.754 6.554-4.889 10.632-6.377 4.086-1.497 8.514-2.246 13.3-2.246 1.979 0 4.05.185 6.213.564 2.154.37 4.225.952 6.213 1.728a30.36 30.36 0 015.606 2.893c1.749 1.156 3.24 2.533 4.464 4.14l-8.404 6.526zM275.973 118.728c0 3.679-.644 6.997-1.924 9.954-1.288 2.958-3.037 5.472-5.246 7.542-2.218 2.07-4.842 3.66-7.88 4.788-3.037 1.118-6.332 1.682-9.885 1.682-3.562 0-6.857-.564-9.885-1.682-3.038-1.119-5.67-2.718-7.916-4.788-2.246-2.07-3.995-4.584-5.247-7.542-1.252-2.957-1.887-6.275-1.887-9.954V80.105h11.027v38.198c0 1.784.23 3.55.7 5.305a13.078 13.078 0 002.32 4.705c1.076 1.377 2.512 2.504 4.289 3.364 1.776.86 3.985 1.294 6.608 1.294 2.624 0 4.824-.435 6.61-1.294 1.776-.86 3.202-1.987 4.289-3.364 1.076-1.377 1.85-2.949 2.319-4.705.47-1.756.7-3.521.7-5.305V80.105h11.027v38.623h-.019zM305.197 89.587H286.21v-9.482h49.004v9.482h-18.989v51.563h-11.027V89.587zM358.492 89.587h-18.99v-9.482h49.005v9.482h-18.989v51.563h-11.026V89.587zM399.277 80.105h41.043v9.482h-30.016v15.518h28.442v9.14h-28.442v17.247h31.59v9.658h-42.617V80.105zM456.234 80.105h21.539c2.917 0 5.743.305 8.486.906 2.743.6 5.173 1.598 7.309 2.976a15.551 15.551 0 015.117 5.434c1.28 2.246 1.924 4.972 1.924 8.189 0 4.427-1.27 8.031-3.81 10.822-2.541 2.792-5.993 4.668-10.374 5.647l16.54 27.071h-13.3l-14.35-25.869h-8.054v25.87h-11.027V80.104zm20.047 26.294c1.574 0 3.148-.11 4.722-.342 1.574-.23 2.992-.656 4.244-1.294a8.23 8.23 0 003.11-2.717c.82-1.174 1.225-2.69 1.225-4.529 0-1.663-.377-3.031-1.141-4.094a8.429 8.429 0 00-2.89-2.542c-1.17-.628-2.495-1.063-3.986-1.294a28.287 28.287 0 00-4.335-.342h-9.978v17.163h9.03v-.009zM583.394 126.575l14.442 14.575h-14l-6.82-6.987c-2.044 2.357-4.52 4.307-7.438 5.86-2.918 1.552-6.618 2.329-11.11 2.329-2.742 0-5.366-.37-7.87-1.119-2.512-.748-4.712-1.867-6.608-3.364a16.622 16.622 0 01-4.547-5.564c-1.142-2.209-1.703-4.787-1.703-7.717 0-2.246.377-4.27 1.141-6.081.764-1.812 1.768-3.439 3.029-4.871a20.432 20.432 0 014.307-3.706 33.867 33.867 0 015.054-2.671c-2.062-2.07-3.691-4.215-4.897-6.424-1.206-2.209-1.814-4.64-1.814-7.283 0-2.587.507-4.824 1.528-6.728 1.022-1.895 2.366-3.466 4.023-4.695a16.78 16.78 0 015.596-2.717 23.69 23.69 0 016.342-.86c2.218 0 4.363.305 6.434.906 2.071.6 3.893 1.525 5.467 2.754 1.574 1.239 2.845 2.791 3.811 4.658.967 1.867 1.445 4.04 1.445 6.507 0 1.95-.331 3.752-1.003 5.388a16.75 16.75 0 01-2.715 4.483 19.49 19.49 0 01-4.023 3.576 35.626 35.626 0 01-4.943 2.764l10.153 10.434 7.18-11.118h11.984l-12.445 17.671zm-26.251-12.671a20.41 20.41 0 00-3.286 1.47 12.082 12.082 0 00-2.715 2.07 8.963 8.963 0 00-1.878 2.893c-.47 1.118-.7 2.403-.7 3.835 0 1.497.304 2.847.92 4.048.618 1.21 1.418 2.218 2.412 3.013a11.187 11.187 0 003.323 1.858c1.224.434 2.421.647 3.59.647 2.568 0 4.759-.545 6.563-1.636 1.804-1.09 3.47-2.643 4.989-4.658l-13.218-13.54zm5.118-26.988c-2.034 0-3.737.638-5.136 1.895-1.39 1.266-2.09 2.902-2.09 4.917 0 1.728.479 3.392 1.436 5s2.301 3.189 4.04 4.741a28.405 28.405 0 003.434-1.728 14.006 14.006 0 002.826-2.153 9.565 9.565 0 001.914-2.671c.47-.98.7-2.043.7-3.189 0-1.84-.663-3.438-1.997-4.788-1.335-1.349-3.047-2.024-5.127-2.024zM634.23 80.105h24.153c2.338 0 4.64.268 6.913.822 2.273.546 4.298 1.442 6.084 2.671 1.786 1.23 3.222 2.829 4.335 4.788 1.105 1.96 1.666 4.316 1.666 7.07 0 3.448-.994 6.294-2.973 8.54-1.988 2.246-4.574 3.854-7.787 4.825v.175c3.912.518 7.115 2.015 9.628 4.483 2.513 2.467 3.765 5.776 3.765 9.917 0 3.336-.672 6.137-2.016 8.41-1.344 2.274-3.111 4.095-5.293 5.472-2.19 1.377-4.694 2.375-7.529 2.976a41.32 41.32 0 01-8.615.905h-22.312V80.105h-.018zm11.028 24.825h9.802c3.673 0 6.48-.721 8.404-2.154 1.924-1.432 2.89-3.475 2.89-6.118 0-2.754-.994-4.714-2.973-5.86-1.979-1.146-5.071-1.728-9.278-1.728h-8.836v15.86h-.01zm0 27.08h9.885c1.4 0 2.918-.102 4.547-.305 1.63-.204 3.14-.62 4.51-1.248a8.807 8.807 0 003.415-2.764c.902-1.21 1.363-2.819 1.363-4.824 0-3.216-1.105-5.462-3.323-6.728-2.218-1.267-5.569-1.895-10.07-1.895h-10.327v17.764zM743.792 118.728c0 3.679-.644 6.997-1.924 9.954-1.289 2.958-3.037 5.472-5.246 7.542-2.219 2.07-4.842 3.66-7.88 4.788-3.037 1.118-6.332 1.682-9.885 1.682-3.562 0-6.857-.564-9.886-1.682-3.037-1.119-5.67-2.718-7.916-4.788-2.246-2.07-3.994-4.584-5.246-7.542-1.252-2.957-1.887-6.275-1.887-9.954V80.105h11.027v38.198c0 1.784.23 3.55.7 5.305a13.078 13.078 0 002.319 4.705c1.077 1.377 2.513 2.504 4.29 3.364 1.776.86 3.985 1.294 6.608 1.294 2.623 0 4.823-.435 6.609-1.294 1.776-.86 3.203-1.987 4.29-3.364 1.076-1.377 1.85-2.949 2.319-4.705.47-1.756.7-3.521.7-5.305V80.105h11.026v38.623h-.018zM805.223 94.412c-1.63-2.181-3.765-3.78-6.388-4.788-2.624-1.007-5.192-1.506-7.704-1.506-3.213 0-6.13.573-8.754 1.728-2.623 1.155-4.887 2.727-6.784 4.741-1.896 2.015-3.35 4.372-4.372 7.07-1.021 2.7-1.528 5.639-1.528 8.8 0 3.336.497 6.377 1.491 9.14.995 2.754 2.412 5.13 4.244 7.117 1.84 1.978 4.04 3.521 6.609 4.612 2.568 1.09 5.458 1.635 8.661 1.635 3.323 0 6.268-.646 8.836-1.94 2.568-1.294 4.64-3.004 6.213-5.13l8.837 6.119a28.24 28.24 0 01-10.06 7.892c-3.968 1.867-8.607 2.8-13.918 2.8-4.842 0-9.287-.794-13.347-2.365-4.059-1.58-7.538-3.79-10.456-6.636-2.918-2.847-5.191-6.239-6.83-10.176-1.629-3.937-2.448-8.29-2.448-13.06 0-4.888.856-9.297 2.586-13.234 1.722-3.937 4.078-7.283 7.088-10.047 3.01-2.754 6.553-4.889 10.631-6.377 4.087-1.497 8.514-2.246 13.3-2.246 1.98 0 4.05.185 6.214.564 2.153.37 4.234.952 6.213 1.728a30.072 30.072 0 015.605 2.893c1.75 1.156 3.24 2.533 4.464 4.14l-8.403 6.526zM824.994 80.105h11.036v26.387h.267L862.2 80.105h14.874l-28.967 28.198 30.89 32.847h-15.49l-27.218-30.61h-.267v30.61h-11.027V80.105z"/></g></g></svg>