<svg xmlns="http://www.w3.org/2000/svg" fill="#2c2c2c" viewBox="0 0 1126 258"><path d="M609.34 190.09l-2.79 8.46h-3.59l9.14-26.89h4.19l9.18 26.89h-3.71l-2.87-8.46h-9.55zm8.82-2.71l-2.63-7.74c-.6-1.76-1-3.35-1.4-4.91h-.08c-.4 1.6-.84 3.23-1.36 4.87l-2.63 7.78h8.1zm55.78 10.29c-1.28.64-3.83 1.28-7.1 1.28-7.58 0-13.29-4.79-13.29-13.6 0-8.42 5.71-14.12 14.04-14.12 3.35 0 5.47.72 6.38 1.2l-.84 2.83c-1.32-.64-3.19-1.12-5.43-1.12-6.3 0-10.49 4.03-10.49 11.09 0 6.58 3.79 10.81 10.33 10.81 2.11 0 4.27-.44 5.66-1.12l.74 2.75zm36.91-23.06h-8.18v-2.95h19.91v2.95h-8.22v23.94h-3.51v-23.94zm44.54-2.95v26.89h-3.47v-26.89h3.47zm38.3 26.89l-8.78-26.89h3.75l4.19 13.25c1.16 3.63 2.15 6.9 2.87 10.05h.08c.76-3.11 1.88-6.5 3.07-10.01l4.55-13.29h3.71l-9.61 26.89h-3.83zm56.63-12.61h-10.45v9.69h11.65v2.91H836.4v-26.89h14.52v2.91h-11.05v8.5h10.45v2.88zM718.75 86.08c3.04 1.84 5.63 3.03 7.77 4.76 5.21 4.22 6.77 10.18 6.58 16.52-.15 5.3-.63 10.56-3.49 15.42-3.08 5.22-7.42 8.72-13.06 10.22-4.11 1.09-8.5 1.43-12.78 1.5-12.45.19-24.91-.03-37.36.13-3.43.04-4.49-1.04-4.48-4.51.08-27.42-.04-54.84-.08-82.27-.01-4.93.13-5.07 4.94-5.07 13.37-.01 26.74-.13 40.1.05 6.74.09 13.41 1.05 18.71 5.9 5.8 5.3 7.18 12.05 6.19 19.54-1.07 8.06-5.76 13.59-13.04 17.81zm-37.73 2.42H681v12.69c0 4.34.11 8.69-.04 13.03-.09 2.7.95 3.63 3.61 3.57 5.48-.14 10.97-.05 16.46-.05 10.21-.01 12.42-2.4 11.75-12.68-.27-4.19-3.83-8.38-7.94-9.06-3.36-.55-6.77-.76-10.13-1.28-1-.16-2.72-.8-2.75-1.3-.19-3.38-.11-6.79.13-10.17.04-.51 1.28-1.1 2.06-1.37 2.69-.91 5.45-1.62 8.14-2.53 6.86-2.34 11.02-9.24 9.34-15.76-.31-1.21-1.49-2.74-2.6-3.1-2.45-.81-5.11-1.23-7.7-1.33-5.02-.19-10.06-.06-15.09-.06-5.2 0-5.22.01-5.23 5.07 0 8.09.01 16.21.01 24.33zm-138.44.18c0-13.83.08-27.66-.06-41.48-.03-3.24.96-4.48 4.28-4.44 11.88.12 23.78-.21 35.65.11 8.53.23 16.94 1.47 24.43 6.24 6.53 4.15 11.2 9.68 14.25 16.84 3.64 8.52 2.9 17.4 2.93 26.25.04 9.18-2.28 17.76-7.23 25.46-4.23 6.58-10.11 11.27-17.57 13.95-7.07 2.54-14.33 3.14-21.78 3.01-10.28-.18-20.57-.15-30.85.01-3.15.05-4.14-.99-4.11-4.12.13-13.95.06-27.89.06-41.83zm18.37-.18v25.72c0 .11.01.23 0 .34-.3 2.4.79 3.22 3.15 3.17 6.17-.13 12.35.04 18.52-.13 12.76-.36 19.82-9.06 21.83-20.34 1.2-6.71 1.41-13.19.18-19.97-1.41-7.76-8.32-15.92-16.26-16.75-7.8-.82-15.68-.95-23.52-1.47-3.04-.2-3.99 1.16-3.95 4.06.13 8.45.05 16.91.05 25.37zm-230.73 0c0-13.61-.01-27.21 0-40.82 0-4.48.25-4.76 4.58-4.77 13.15-.02 26.3-.19 39.45.1 4.26.09 8.7.85 12.7 2.3 8.01 2.9 12.14 9.11 13.28 17.54 1.9 14.11-5.12 23.23-16.39 30.11-3.89 2.37-3.94 2.42-1.31 6.02 7.14 9.77 14.33 19.5 21.49 29.25.88 1.2 1.97 2.34 2.44 3.69.23.65-.73 2.48-1.18 2.49-6.28.16-12.58.19-18.86-.01-1-.03-2.24-1.1-2.9-2.03-8.36-11.84-16.84-23.6-24.75-35.74-1.57-2.41-1.13-6.34-.93-9.52.05-.79 2.75-1.48 4.28-2.09 4.09-1.65 8.4-2.87 12.26-4.94 5.27-2.82 7.17-7.7 6.52-13.59-.37-3.34-2.16-5.97-5.4-6.17-8.08-.51-16.19-.51-24.29-.47-.61 0-1.69 1.91-1.73 2.96-.19 4.91-.08 9.83-.08 14.75 0 17.49-.09 34.99.07 52.48.03 3.53-1.1 4.66-4.52 4.41-3.53-.26-7.09-.21-10.63-.01-3.08.17-4.2-.84-4.16-4.07.15-13.97.06-27.92.06-41.87zm440.31.1c0-13.72-.01-27.43.01-41.15 0-4.03.56-4.64 4.51-4.66 18.29-.09 36.57-.11 54.86-.25 3.09-.02 4.4 1.08 4.21 4.22-.17 2.73-.19 5.5.01 8.22.23 3.1-.86 4.2-4.06 4.16-12-.16-24-.07-36-.06-4.4 0-4.55.16-4.59 4.68-.03 4 .11 8.01-.05 12-.11 2.73 1.01 3.56 3.64 3.54 11.43-.1 22.86-.07 34.29-.06 4.52 0 5.23.72 5.27 5.13.02 2.29.01 4.57 0 6.86-.01 5.11-.48 5.59-5.77 5.6-10.74.01-21.49-.01-32.23 0-5.12 0-5.15.04-5.16 5.19-.01 4 .14 8.01-.04 12-.13 2.9 1.03 3.74 3.81 3.71 12.23-.12 24.46-.07 36.69-.07 5.5 0 5.71.23 5.74 5.86.01 2.17.02 4.34 0 6.51-.04 4.43-.12 4.53-4.7 4.53-13.14.02-26.29.01-39.43.01-5.49 0-10.97.02-16.46-.01-4.19-.02-4.53-.35-4.53-4.47-.04-13.83-.03-27.66-.02-41.49zm-331.44.06c0-13.72-.01-27.44 0-41.17.01-4.18.39-4.58 4.47-4.59 18.18-.03 36.36-.04 54.55-.03 4.46 0 4.88.46 4.89 4.95.01 2.17.01 4.35 0 6.52-.02 4.59-.15 4.73-4.91 4.73-12.01.01-24.02.11-36.02-.06-3.26-.05-4.5.84-4.29 4.21.26 4.33.19 8.69.01 13.03-.11 2.63.91 3.32 3.4 3.3 11.43-.11 22.87-.08 34.3-.08 4.82 0 4.93.12 4.94 5.07.01 2.74-.15 5.5.04 8.23.21 3.01-.99 4.02-3.96 3.99-11.32-.12-22.64-.06-33.96-.06-4.9 0-4.91.01-4.91 4.92-.01 4.35.11 8.69-.04 13.03-.09 2.58.91 3.36 3.4 3.34 12.35-.1 24.7-.07 37.05-.09 5.25-.01 5.25 0 5.26 5.4 0 2.52-.14 5.04.03 7.54.19 2.84-.94 3.79-3.76 3.76-11.09-.11-22.18-.04-33.28-.04h-21.96c-5.23 0-5.25-.01-5.25-5.43-.01-13.49 0-26.98 0-40.47zm600.72-44.95c1.38-.33 2.54-.83 3.7-.85 4.23-.1 8.46.01 12.69-.05 2.5-.04 3.9 1.21 5.1 3.29 6.91 12.03 13.93 24.01 20.93 35.99.37.64.92 1.18 1.74 2.21 2.76-4.9 5.32-9.39 7.82-13.92 4.52-8.16 9.09-16.3 13.44-24.55 1.13-2.15 2.51-3.05 4.81-3.02 3.89.05 7.78-.03 11.67.03 3.34.05 4.13 1.59 2.43 4.59-6.08 10.67-12.17 21.33-18.24 32.01-3.6 6.33-7.29 12.6-10.66 19.05-1.11 2.13-1.8 4.72-1.87 7.11-.22 8.23-.17 16.47-.02 24.7.06 3.06-.93 4.43-4.11 4.3-3.77-.16-7.55-.13-11.32-.01-2.9.09-4.1-.99-4.04-4.01.15-8-.26-16.03.18-24.01.28-5.14-2.79-8.54-5.01-12.36-9.21-15.84-18.65-31.54-27.97-47.31-.51-.84-.75-1.85-1.27-3.19zM873.8 88.73c.01-13.48-.01-26.96.01-40.44.01-5.01.75-5.73 5.8-5.75 3.08-.01 6.17.11 9.25-.02 3.4-.14 4.55 1.31 4.53 4.7-.1 21.71-.04 43.41-.03 65.12 0 5.24.01 5.24 5.2 5.24 8.68.01 17.37.1 26.05-.02 3.26-.04 4.59 1.26 4.43 4.48-.13 2.85-.17 5.72.01 8.56.2 3-1.02 4.02-3.96 4-12.45-.09-24.9-.04-37.36-.04-3.2 0-6.41-.2-9.59.05-3.43.27-4.43-1.31-4.39-4.42.08-6.97.03-13.94.03-20.91.02-6.84.02-13.7.02-20.55zm94.26-.08c0-13.84.08-27.67-.06-41.51-.03-3.28 1.03-4.58 4.32-4.4 3.19.18 6.4.02 9.6.05 4.26.03 4.5.25 4.5 4.45.01 13.03.01 26.07.01 39.1v26.07c0 5.28 0 5.28 5.46 5.29 8.69.01 17.38.13 26.07-.02 3.17-.05 4.33 1.15 4.19 4.22-.15 3.31-.08 6.63-.04 9.95.02 1.86-.78 2.7-2.66 2.7-16.24-.02-32.47-.03-48.71.01-2.8.01-2.68-1.83-2.68-3.72V88.65zM257.3 119.34c-1.92-29.82-13.56-56.11-34.24-77.96-29.27-30.93-65.64-44.03-107.63-40.13-32.58 3.03-60.26 17.51-81.98 42.02-25.9 29.22-36.7 63.71-31.77 102.49 4.03 31.67 18.36 58.51 42.35 79.54 24.15 21.16 52.43 32.38 82.8 31.85 36.16.36 65.5-11.45 90.13-34.55 29.77-27.9 42.94-62.88 40.34-103.26zm-58.97 2.09c-6.15 5-13.48 7.44-20.69 10.19-5.02 1.92-10.04 3.84-15.06 5.77-1.76.68-2.51 1.57-1.28 3.53 9.56 15.16 3.36 31.19-9.99 39.07-1.76 1.04-2.03 2.28-1.97 4.15.24 7.3-.95 14.31-5.05 20.55-4.39 6.7-10.77 9.27-18.53 8.38-7.72-.88-12.42-5.69-15.13-12.65-2.02-5.19-2.84-10.64-2.39-16.16.26-3.18-.43-5.19-3.57-6.56-3.53-1.55-6.3-4.32-8.46-7.51-5.05-7.45-3.93-16.47 2.77-23.67 2.89-3.1 2.9-3.13-.69-5.29-9.44-5.7-19.74-9.51-29.9-13.64-4.27-1.74-8.38-3.8-11.39-7.49-3.71-4.56-4.72-9.76-2.56-15.15 2.25-5.61 6.75-8.89 12.76-9.73 11.21-1.57 20.96 1.81 29.58 8.99 5.59 4.66 9.82 10.4 13.75 16.42 1.33 2.04 2.63 5.18 4.92 5.03 2.47-.16 2.85-3.62 3.71-5.84 4.79-12.24 2.47-20.04-8.41-28.46-4.55-3.52-8.81-7.27-11.67-12.39-4.61-8.27-4.36-15.89.81-21.55 5.25-5.75 14.34-7.29 22.33-3.44 2.68 1.29 5.01 1.77 7.96.9 4.19-1.24 6.7.08 8.48 3.95 2.21 4.8 5.54 9.21 4.29 15.16-.54 2.56 2.42 2.3 4.56 2.72-1.07 1.41-1.79 2.35-2.91 3.83-1.02-4.35-3.79-4.42-7.25-3.97-5.4.7-9.94-2.26-14.5-4.53-2.43-1.21-2.85-3.82-2.46-6.48.51-3.52-1.01-5.63-4.51-6.44-4.16-.97-9.11.91-11.3 4.29-2 3.09-1.57 7.32 1.15 10.99 2.32 3.13 5.64 5.09 8.73 7.29 3.84 2.73 7.69 5.43 10.85 8.98 7.82 8.79 7.56 18.95 4.97 29.48-.56 2.28-1.38 4.49-2.04 6.75-.18.62-.45 1.35.1 1.9.67.67 1.51.39 2.2.06 3.44-1.64 5.25-4.51 5.59-8.21.38-4.02.54-8.06 1.45-12.01.98-4.26 3.99-5.96 8.49-4.5-4.11 2.07-4.48 5.62-4.5 9.48-.01 3.9.61 7.85-.74 11.69-2.15 6.13-7.4 10.08-13.9 10.41-2.94.15-7.23 3.29-8.06 5.98-.15.48-.16 1.33.12 1.56 2.34 1.91 4.74 3.76 7.55 4.95.98.41 1.7-.3 2.39-.87 4.9-4.12 10.14-7.77 15.48-11.28 1.28-.84 2.34-1.65 1.94-3.48-3.07-13.82 3.35-23.64 13.65-31.63 10.53-8.17 22.22-9.06 34.31-4.25 10.63 4.2 13.21 17.25 4.02 24.73z"/><path d="M110.6 134.03c.65-.93 1.38-1.78 0-2.8-4.61-3.39-7.32-8.39-10.69-12.83-6.72-8.86-15.17-14.76-26.24-15.3-1.35.08-2.25.1-3.14.19-4.36.45-7.99 2.98-8.51 5.92-.61 3.45 1.24 6.2 5.75 8.46.6.3 1.24.51 1.87.74 9.7 3.38 19.52 6.48 28.43 11.76 2.88 1.71 5.73 3.47 8.61 5.18 1.81 1.08 2.94.07 3.92-1.32zm77.74-28.86c-.81-.34-1.73-.46-2.62-.58-6.25-.86-12.05.46-17.38 3.75-6.51 4-10.99 9.44-11.89 17.24-.34 2.93.43 3.78 3.35 2.48 3.05-1.37 6.33-2.2 9.5-3.3 6.86-2.39 13.91-4.27 20.3-7.86 2.41-1.35 4.68-3.14 4.44-6.2-.26-3.28-3.1-4.43-5.7-5.53zm-39.91 39.53c-4.49 2.57-8.51 5.76-12.41 9.13-1.33 1.15-1.32 2.11-.09 3.33a47.02 47.02 0 019 12.45c.76 1.52 1.81 1.79 3.25.9 4.87-3.01 7.97-7.1 8.1-12.35-.04-5.4-2.11-9.3-4.76-13-.94-1.31-1.79-1.21-3.09-.46zm-10.98 40.31c-5.71.91-11.38.77-17.02-.58-2.16-.52-3.04.38-3.05 2.63-.02 4.01.84 7.79 2.65 11.33 3.56 6.94 10.79 7.76 15.85 1.84 2.91-3.4 3.55-7.63 4.2-11.6-.06-2.02.39-4.11-2.63-3.62zm-18.73-29.47c-2.32-2.27-5.06-4.01-8-5.38-.3-.14-.96.07-1.2.34-2.57 2.79-5.42 5.44-5.55 8.23-.08 5.1 1.68 7.78 4.62 9.85 1.45 1.02 2.53.77 3.23-.81 1.6-3.62 3.85-6.81 6.32-9.86.59-.72 1.32-1.65.58-2.37zm3.89 19.06c2.65.37 5.32.61 8.31.94.9-.13 2.12-.44 3.33-.45 3.05-.01 2.69-1.63 1.64-3.44-1.75-3-3.99-5.62-6.35-8.17-1.51-1.63-2.56-1.2-3.76.31-1.88 2.37-3.52 4.86-4.87 7.58-1.04 2.12-.24 2.96 1.7 3.23z"/></svg>
