<svg xmlns="http://www.w3.org/2000/svg" xml:space="preserve" fill-rule="evenodd" stroke-linejoin="round" stroke-miterlimit="2" clip-rule="evenodd" viewBox="0 0 24 24">
	<style>
		[data-part=background] { fill: #fff; }
		[data-part=foreground] { fill: #2c2c2c; }
		@media (prefers-color-scheme: dark) {
			[data-part=background] { fill: #2c2c2c; }
			[data-part=foreground] { fill: #fff; }
		}
	</style>
	<path data-part="background" d="M24 6c0-3.311-2.689-6-6-6H6C2.689 0 0 2.688 0 6v12c0 3.312 2.689 6 6 6h12c3.311 0 6-2.688 6-6V6Z" />
	<g fill-rule="nonzero">
		<path data-part="foreground" d="M6.737 7.459c.48 0 1.051.09 1.726.285.675.194 1.012.285 1.025.285.091 0 .143-.064.143-.194v-.26h.156v2.661H9.63l-.039-.13c-.168-.532-.363-.973-.584-1.323-.22-.35-.467-.61-.74-.766a2.738 2.738 0 0 0-.752-.312 3.756 3.756 0 0 0-.805-.078c-.817 0-1.428.402-1.843 1.22-.415.818-.623 1.908-.623 3.283 0 3.012.753 4.517 2.271 4.517.598 0 1.025-.155 1.285-.467.26-.311.39-.818.39-1.519v-1.998c0-.169-.026-.273-.065-.312-.04-.039-.143-.065-.312-.065h-.26v-.156H12.7v.156h-1.9c-.168 0-.273.026-.311.065-.04.04-.065.143-.065.312v1.272c0 .843-.376 1.531-1.117 2.063-.74.532-1.66.792-2.764.792-1.31 0-2.4-.441-3.257-1.324C2.428 14.583 2 13.468 2 12.13c0-1.323.454-2.44 1.363-3.335.908-.895 2.037-1.35 3.374-1.35v.014Z" />
		<path data-part="foreground" d="M14.33 3.675c-.168 0-.272.026-.311.065-.04.039-.065.143-.065.312v15.87c0 .17.026.273.065.312.039.039.143.065.311.065h1.376c.376 0 .714-.078 1.012-.234.298-.155.52-.35.662-.584.143-.233.247-.467.311-.687.062-.189.097-.385.104-.584v-.13h.156v2.388h-6.878v-.156h.26c.168 0 .272-.026.31-.065.04-.039.066-.143.066-.311V4.065c0-.17-.026-.273-.066-.312-.038-.039-.142-.065-.31-.065h-.26v-.156h3.504v.156l-.247-.013Z" />
		<path data-part="foreground" d="M21.792 9.976v-.13c0-.207-.039-.428-.104-.649a2.843 2.843 0 0 0-.311-.674 1.523 1.523 0 0 0-.662-.571 2.311 2.311 0 0 0-1.012-.221h-1.636c-.168 0-.272.026-.311.065-.039.039-.065.143-.065.312v3.815h1.246c.325 0 .597-.052.818-.143a1 1 0 0 0 .493-.39c.104-.168.182-.323.22-.48.04-.155.065-.323.065-.493v-.259h.156v3.686h-.156v-.26c0-.168-.013-.337-.051-.493a1.68 1.68 0 0 0-.208-.48.97.97 0 0 0-.48-.39 2.157 2.157 0 0 0-.818-.142H17.73v4.023c0 .169.026.273.065.312.039.039.143.064.311.064h.26v.156h-3.504v-.156h.26c.168 0 .272-.025.31-.064.04-.04.066-.143.066-.312V8.108c0-.17-.026-.273-.065-.312-.039-.039-.143-.065-.312-.065h-2.45v-.156H22v2.388l-.208.013Z" />
	</g>
</svg>
